<svg class="no-stroke" data-name="Layer 1" xmlns="http://www.w3.org/2000/svg" viewBox="0 0 28.55 30.01"><path d="M22 14.99a6.8 6.8 0 00-6.56 7 6.8 6.8 0 006.56 7 6.8 6.8 0 006.57-7 6.8 6.8 0 00-6.57-7zm0 12.65a5.47 5.47 0 01-5.31-5.65A5.48 5.48 0 0122 16.36a5.48 5.48 0 015.28 5.63A5.47 5.47 0 0122 27.65zm1.64-2.94l-2.27-1.71a.34.34 0 01-.13-.27v-4.67a.33.33 0 01.32-.33h.85a.33.33 0 01.32.33v4l1.76 1.38a.34.34 0 01.07.47l-.5.73a.3.3 0 01-.44.08z" fill="#191960"/><path d="M5.93 16.88h2.2a.69.69 0 00.66-.7v-2.35a.68.68 0 00-.66-.7h-2.2a.68.68 0 00-.66.7v2.35a.69.69 0 00.66.7zm8.13-3.05v2.35a.68.68 0 01-.66.7h-2.19a.68.68 0 01-.66-.7v-2.35a.68.68 0 01.66-.7h2.19a.68.68 0 01.66.7zM16 16.62a8.15 8.15 0 013.37-2.44v-.35a.68.68 0 00-.66-.7h-2.2a.68.68 0 00-.66.7v2.35a.75.75 0 00.15.44zm.14 10.57H3a.34.34 0 01-.33-.35V9.38H22v4.25h.34a7.94 7.94 0 012.3.33v-7.4A2.73 2.73 0 0022 3.75h-2.66v-3a.69.69 0 00-.66-.7h-2.2a.69.69 0 00-.66.7v3h-7v-3a.69.69 0 00-.69-.76h-2.2a.69.69 0 00-.66.7v3.06H2.64A2.73 2.73 0 000 6.56v20.63a2.73 2.73 0 002.64 2.8h19.11a8.2 8.2 0 01-5.64-2.8zm-2-7.73v2.34a.68.68 0 01-.66.71h-2.27a.68.68 0 01-.66-.71v-2.34a.68.68 0 01.66-.71h2.19a.68.68 0 01.66.71zm-5.27 0v2.34a.69.69 0 01-.66.71H5.93a.69.69 0 01-.66-.71v-2.34a.69.69 0 01.66-.71h2.2a.69.69 0 01.66.71z" fill-rule="evenodd" fill="#191960"/></svg>